<svg xmlns="http://www.w3.org/2000/svg" width="290" height="290" fill="none"><circle cx="145" cy="145" r="145" fill="#DEF4FC"/><mask id="a" width="290" height="290" x="0" y="0" maskUnits="userSpaceOnUse" style="mask-type:luminance"><circle cx="145" cy="145" r="145" fill="#fff"/></mask><g mask="url(#a)"><path fill="#B1D5E2" fill-rule="evenodd" d="M257 25c0-6.627-5.373-12-12-12h-58c-6.627 0-12 5.373-12 12s5.373 12 12 12h58c6.627 0 12-5.373 12-12ZM73 133c6.627 0 12 5.373 12 12s-5.373 12-12 12h-3c-6.627 0-12 5.373-12 12s5.373 12 12 12h124c6.627 0 12-5.373 12-12s-5.373-12-12-12h-52l-.001-.01c-6.395-.263-11.499-5.53-11.499-11.99s5.104-11.727 11.499-11.99L142 133h2c6.627 0 12-5.373 12-12s-5.373-12-12-12H99v-.01c-6.395-.262-11.5-5.53-11.5-11.99S92.605 85.272 99 85.01V85h20c6.627 0 12-5.373 12-12s-5.373-12-12-12H46c-6.627 0-12 5.373-12 12s5.373 12 12 12h5c6.627 0 12 5.373 12 12s-5.373 12-12 12H2c-6.627 0-12 5.373-12 12s5.373 12 12 12h71Zm57 72c6.627 0 12 5.373 12 12s-5.373 12-12 12-12-5.373-12-12 5.373-12 12-12Zm122 12c0-6.627-5.373-12-12-12h-62c-6.627 0-12 5.373-12 12s5.373 12 12 12h62c6.627 0 12-5.373 12-12Zm-86 48c0-6.627-5.373-12-12-12h-20c-6.627 0-12 5.373-12 12s5.373 12 12 12h20c6.627 0 12-5.373 12-12Zm79-108c6.627 0 12 5.373 12 12s-5.373 12-12 12-12-5.373-12-12 5.373-12 12-12ZM34 169c0-6.627-5.373-12-12-12H2c-6.627 0-12 5.373-12 12s5.373 12 12 12h20c6.627 0 12-5.373 12-12ZM221 61c6.627 0 12 5.373 12 12s-5.373 12-12 12h-20c-6.627 0-12-5.373-12-12s5.373-12 12-12h20Z" clip-rule="evenodd"/></g><mask id="b" width="290" height="290" x="0" y="0" maskUnits="userSpaceOnUse" style="mask-type:luminance"><circle cx="145" cy="145" r="145" fill="#fff"/></mask><g mask="url(#b)"><path fill="#000" d="M146 0h145v290H146z" opacity=".078"/></g></svg>