<svg xmlns="http://www.w3.org/2000/svg" width="108" height="26" fill="none"><path fill="#fff" d="M2.994 25V3.453H.314V.938h8.19v2.515H5.988V25H2.994Zm6.73 0V.937h2.994V11.11h3.732V.938h3.008V25H16.45V13.598h-3.732V25H9.723Zm12.567 0V.937h7.369v2.516h-4.375v7.985h4.142v2.502h-4.142v8.544h4.443V25h-7.437Zm14.743 0V.937h4.977c.957 0 1.736.16 2.338.479.61.31 1.08.766 1.408 1.367.328.593.552 1.313.67 2.16.128.839.191 1.791.191 2.858v.396c0 1.604-.127 2.953-.383 4.047-.255 1.094-.715 1.919-1.38 2.475-.657.547-1.595.82-2.817.82h-2.01V25h-2.994Zm2.995-11.95h1.627c.556 0 .97-.15 1.244-.45.282-.31.474-.82.574-1.532.1-.71.15-1.668.15-2.87v-.466c0-1.503-.118-2.615-.355-3.336-.228-.729-.748-1.093-1.559-1.093H40.03v9.748ZM48.343 25V.937h2.994v21.561h4.484V25h-7.478Zm7.303 0L59.257.937h3.705L66.872 25h-2.817l-.67-4.525H59.12L58.518 25h-2.87Zm3.801-6.959h3.582L61.184 5.449h-.04l-1.696 12.592ZM68.392 25V.937h2.283l5.47 15.97-.274-6.878V.938h2.666V25h-2.188L70.99 8.812l.165 6.126V25h-2.762Zm12.978 0V.937h7.369v2.516h-4.375v7.985h4.142v2.502h-4.142v8.544h4.443V25h-7.438Zm10.448 0V3.453h-2.68V.938h8.19v2.515h-2.516V25h-2.994Zm10.707.273c-.975 0-1.777-.168-2.406-.505a3.648 3.648 0 0 1-1.45-1.477c-.336-.638-.573-1.395-.71-2.27a20.675 20.675 0 0 1-.191-2.939v-2.297h2.898v2.434c0 1.604.119 2.752.355 3.445.237.693.743 1.04 1.518 1.04.529 0 .916-.124 1.162-.37.255-.246.419-.643.492-1.19.082-.555.123-1.28.123-2.173 0-1.04-.191-1.942-.574-2.707-.374-.775-.925-1.527-1.654-2.256l-1.613-1.627a17.146 17.146 0 0 1-1.34-1.545 7.578 7.578 0 0 1-1.053-1.887c-.273-.702-.41-1.5-.41-2.392 0-1.23.132-2.284.396-3.159.265-.884.739-1.563 1.422-2.037.693-.483 1.664-.724 2.912-.724.976 0 1.759.164 2.352.492a3.142 3.142 0 0 1 1.353 1.422c.31.61.515 1.34.616 2.187.109.848.164 1.791.164 2.83v1.436h-2.844V7.377c0-.93-.041-1.7-.123-2.31-.073-.62-.228-1.085-.465-1.395-.228-.31-.579-.465-1.053-.465-.446 0-.806.105-1.08.314-.273.21-.474.538-.601.985-.119.437-.178 1.002-.178 1.695 0 .61.073 1.121.219 1.531.155.401.383.78.683 1.135.301.347.675.752 1.121 1.217l1.709 1.832c.885.92 1.6 1.941 2.147 3.063.547 1.111.82 2.392.82 3.841 0 1.358-.137 2.52-.41 3.487-.264.957-.738 1.69-1.422 2.2-.674.511-1.636.766-2.885.766Z"/></svg>